<svg xmlns="http://www.w3.org/2000/svg" width="88" height="88" viewBox="0 0 88 88" fill="none">
  <path d="M80.6666 43.9999C80.6666 64.2504 64.2504 80.6666 44 80.6666C23.7495 80.6666 7.33331 64.2504 7.33331 43.9999C7.33331 23.7495 23.7495 7.33325 44 7.33325C64.2504 7.33325 80.6666 23.7495 80.6666 43.9999ZM14.6666 43.9999C14.6666 60.2003 27.7996 73.3333 44 73.3333C60.2003 73.3333 73.3333 60.2003 73.3333 43.9999C73.3333 27.7996 60.2003 14.6666 44 14.6666C27.7996 14.6666 14.6666 27.7996 14.6666 43.9999Z" fill="#BCB399" fill-opacity="0.4"/>
  <path d="M44 7.33325C51.7432 7.33325 59.2877 9.7846 65.5521 14.336C71.8165 18.8873 76.4793 25.305 78.872 32.6693L71.8976 34.9354C69.9834 29.044 66.2532 23.9098 61.2417 20.2688C56.2301 16.6277 50.1946 14.6666 44 14.6666V7.33325Z" fill="#847343"/>
</svg>